<svg width="99" height="100" viewBox="0 0 99 100" fill="none" xmlns="http://www.w3.org/2000/svg">
<path d="M51.446 59.7926C51.5557 60.2405 51.8634 60.6322 52.3019 60.882C52.7404 61.1318 53.274 61.2193 53.786 61.1255H53.7718L85.4379 55.0941C85.6942 55.0474 85.9368 54.9549 86.1504 54.8223C86.364 54.6897 86.544 54.5199 86.6793 54.3236L86.684 54.3152C86.8275 54.1175 86.9242 53.8965 86.9683 53.6654C87.0124 53.4342 87.0031 53.1977 86.9408 52.9698L86.9456 52.9823C78.3228 27.2867 60.9487 7.99733 39.2466 5.0207e-08H39.0611C38.7651 -6.2426e-05 38.4729 0.0581836 38.2061 0.170426C37.9393 0.282668 37.7047 0.446032 37.5197 0.648423C37.3347 0.850815 37.2041 1.08705 37.1375 1.33964C37.0709 1.59223 37.07 1.8547 37.1349 2.10763L37.1302 2.09514L51.446 59.7926ZM20.8215 67.3734L45.8338 62.6333C46.342 62.5371 46.7873 62.2711 47.0752 61.8919L47.0799 61.8835C47.2269 61.6958 47.326 61.4826 47.3703 61.2583C47.4146 61.034 47.4032 60.804 47.3368 60.584L47.3415 60.5965L39.375 28.4697C39.3002 28.1302 39.1067 27.8195 38.8212 27.5807C38.5357 27.3418 38.1724 27.1867 37.7818 27.1368H37.7722C37.687 27.1165 37.599 27.1067 37.5107 27.1076H37.4393C37.0959 27.1058 36.7628 27.1834 36.4647 27.3326C36.1665 27.4818 35.9187 27.6973 35.7461 27.9573L35.7414 27.9657L35.1849 28.7987C27.7749 39.8201 21.3494 49.3544 18.4434 65.4324C18.3954 65.7083 18.4234 65.9902 18.5252 66.2547C18.627 66.5192 18.7995 66.7585 19.0284 66.9527C19.2767 67.1332 19.5674 67.2635 19.8799 67.334C20.1924 67.4046 20.5188 67.4138 20.8358 67.3609H20.8215V67.3734ZM18.4006 84.9175C18.8019 84.9111 19.187 84.778 19.485 84.5427L20.6265 83.543C22.7872 81.6633 25.7091 80.6083 28.7547 80.6083C31.8002 80.6083 34.7221 81.6633 36.8829 83.543L38.0243 84.5427C38.1587 84.6627 38.3194 84.7578 38.4967 84.8222C38.6741 84.8867 38.8644 84.9191 39.0564 84.9175H39.104C39.5052 84.9111 39.8903 84.778 40.1883 84.5427L41.4011 83.4805C43.5553 81.6221 46.458 80.5807 49.4818 80.5815C52.6493 80.5815 55.5125 81.7019 57.5957 83.5097L58.7086 84.4843C58.998 84.7327 59.3833 84.8769 59.7882 84.8884C60.1895 84.882 60.5793 84.7488 60.8774 84.5135L61.9903 83.5388C64.151 81.6591 67.073 80.6042 70.1185 80.6042C73.1641 80.6042 76.086 81.6591 78.2467 83.5388L79.3881 84.5385C79.6545 84.7676 80.016 84.9134 80.4202 84.9134H80.4725C80.8738 84.907 81.2541 84.7738 81.5522 84.5385L82.6936 83.5388C83.7938 82.578 85.1063 81.8239 86.5508 81.3229L86.6269 81.2979C86.7268 81.123 86.8552 80.9855 86.9551 80.8106L98.7883 59.6801C98.9603 59.359 99.0295 59.003 98.9885 58.6501C98.9474 58.2972 98.7977 57.9607 98.5552 57.6766L98.56 57.6808C98.3063 57.3985 97.9671 57.1844 97.581 57.0629C97.195 56.9414 96.7778 56.9173 96.3769 56.9935L96.3912 56.9893L12.3699 72.9507C11.9926 73.0237 11.6379 73.1678 11.3306 73.3729C11.0232 73.578 10.7705 73.8392 10.5899 74.1384C10.4094 74.4376 10.3053 74.7676 10.285 75.1056C10.2647 75.4435 10.3285 75.7813 10.4722 76.0955L10.4675 76.0788L13.1546 82.0518C14.8003 82.6558 16.2033 83.493 17.3828 84.5218C17.4892 84.6447 17.6265 84.7443 17.7841 84.8129C17.9417 84.8816 18.1152 84.9174 18.2912 84.9175L18.4101 84.9134L18.4006 84.9175ZM97.0428 93.7021C95.4257 92.2984 93.2046 91.4362 90.7505 91.4362C88.2963 91.4362 86.0705 92.3026 84.4581 93.7063L83.3167 94.7059C82.5484 95.3706 81.512 95.7433 80.4321 95.7433C79.3522 95.7433 78.3158 95.3706 77.5475 94.7059L76.4061 93.7063C74.789 92.3026 72.5679 91.4404 70.1137 91.4404C67.6596 91.4404 65.4337 92.3067 63.8214 93.7104L62.7085 94.6851C61.942 95.3478 60.9081 95.719 59.8311 95.7181H59.8025C59.2684 95.7176 58.7399 95.6234 58.2481 95.441C57.7563 95.2585 57.3113 94.9916 56.9393 94.6559L55.8217 93.6771C54.1432 92.2196 51.874 91.4034 49.5103 91.407C47.0657 91.407 44.8541 92.2609 43.2323 93.648L42.0194 94.7101C41.2512 95.3748 40.2148 95.7475 39.1349 95.7475C38.055 95.7475 37.0185 95.3748 36.2503 94.7101L35.1088 93.7104C33.4917 92.3067 31.2706 91.4404 28.8117 91.4404C26.3528 91.4404 24.1317 92.3067 22.5147 93.7104L21.3732 94.7101C20.6049 95.3748 19.5685 95.7475 18.4886 95.7475C17.4087 95.7475 16.3723 95.3748 15.604 94.7101C13.6921 93.0606 11.062 92.0402 8.16074 92.0402C5.25952 92.0402 2.63415 93.0606 0.71744 94.7101C0.490232 94.9058 0.309783 95.1392 0.186609 95.3967C0.0634353 95.6541 0 95.9305 0 96.2096C0 96.4887 0.0634353 96.7651 0.186609 97.0225C0.309783 97.2799 0.490232 97.5133 0.71744 97.7091C0.938966 97.9081 1.20374 98.0663 1.49617 98.1743C1.7886 98.2824 2.10275 98.338 2.42012 98.3381H2.43915C3.0696 98.3401 3.67519 98.1229 4.12281 97.7341C4.65142 97.2686 5.27986 96.8992 5.97201 96.6472C6.66417 96.3951 7.40638 96.2654 8.15598 96.2654C8.90559 96.2654 9.6478 96.3951 10.34 96.6472C11.0321 96.8992 11.6606 97.2686 12.1892 97.7341C13.8062 99.1336 16.0273 100 18.4815 100C20.9356 100 23.1615 99.1336 24.7738 97.7341L25.9153 96.7344C26.6835 96.0698 27.7199 95.697 28.7999 95.697C29.8798 95.697 30.9162 96.0698 31.6844 96.7344L32.8259 97.7341C34.4239 99.1336 36.6308 100 39.0707 100H39.123H39.1182H39.1325C41.5676 100 43.7744 99.1461 45.382 97.7591L46.6281 96.6969C47.3964 96.0323 48.4328 95.6595 49.5127 95.6595C50.5926 95.6595 51.629 96.0323 52.3973 96.6969L53.5102 97.6716C55.1178 99.0878 57.3436 99.9625 59.8025 99.9667H59.8548C62.2947 99.9667 64.5015 99.1003 66.0948 97.7008L67.2078 96.7261C67.976 96.0614 69.0124 95.6887 70.0923 95.6887C71.1723 95.6887 72.2087 96.0614 72.9769 96.7261L74.1184 97.7258C75.7355 99.1253 77.9566 99.9917 80.4107 99.9917C82.8649 99.9917 85.0907 99.1253 86.703 97.7258L87.8445 96.7261C88.6128 96.0614 89.6492 95.6887 90.7291 95.6887C91.809 95.6887 92.8454 96.0614 93.6137 96.7261C94.0465 97.101 94.641 97.3301 95.3021 97.3301H95.3544C95.6669 97.3267 95.9757 97.2695 96.263 97.1615C96.5502 97.0536 96.8104 96.8972 97.0285 96.7011C97.2583 96.5072 97.4411 96.2747 97.5661 96.0176C97.6911 95.7605 97.7558 95.484 97.7562 95.2046C97.7566 94.9251 97.6929 94.6485 97.5687 94.3911C97.4445 94.1337 97.2624 93.9008 97.0333 93.7063L97.0428 93.7021Z" fill="black"/>
</svg>
